<svg viewBox="0 0 1024 1024" xmlns="http://www.w3.org/2000/svg" xmlns:xlink="http://www.w3.org/1999/xlink"><linearGradient id="a" gradientUnits="userSpaceOnUse" x1="774.94" x2="225.09" y1="1095.16" y2="-124.33"><stop offset="0" stop-color="#8e6fc7"/><stop offset=".79" stop-color="#815cc2"/><stop offset=".96" stop-color="#7e58c2"/></linearGradient><rect fill="url(#a)" height="1024" rx="82.22" width="1024"/><g fill="none" stroke="#fff" stroke-linecap="round"><path d="m787.67 326.8v187.2" stroke-miterlimit="10" stroke-width="60"/><path d="m694.07 420.4h187.2" stroke-miterlimit="10" stroke-width="60"/><g stroke-linejoin="round" stroke-width="80"><path d="m348.96 211.81h266.08"/><path d="m561.82 211.81v223.31l209.04 348.37c7.57 12.6 3.49 28.94-9.11 36.51-4.13 2.48-8.86 3.8-13.68 3.8h-532.15c-14.7 0-26.61-11.9-26.62-26.6 0-4.83 1.31-9.57 3.8-13.71l209.07-348.37v-223.31"/><path d="m294.51 614.52c44-8.25 106.43-4.69 187.49 36.32 107.26 54.31 182.1 42.94 224.51 25.44"/></g></g></svg>